<svg width="32" height="32" viewBox="0 0 32 32" fill="none" xmlns="http://www.w3.org/2000/svg">
<g clip-path="url(#clip0_328_1214)">
<rect width="4.05633" height="16.2253" rx="2.02817" transform="matrix(0.694203 0.71978 -0.694203 0.71978 29.1841 0)" fill="#D9D9D9"/>
<rect width="4.05633" height="16.2253" rx="2.02817" transform="matrix(-0.694203 0.71978 0.694203 0.71978 2.81592 0)" fill="#D9D9D9"/>
<path d="M13.9381 17.475C13.9381 16.3754 14.8296 15.4839 15.9292 15.4839V15.4839C17.0289 15.4839 17.9204 16.3754 17.9204 17.475V30.0089C17.9204 31.1085 17.0289 32 15.9292 32V32C14.8296 32 13.9381 31.1086 13.9381 30.0089L13.9381 17.475Z" fill="#D9D9D9"/>
<ellipse cx="15.9292" cy="14.4516" rx="5.97346" ry="6.19355" fill="#D9D9D9"/>
<ellipse cx="15.9292" cy="14.4516" rx="3.98231" ry="4.12903" fill="#6F6B6B"/>
<rect x="13.9381" y="26.8387" width="3.98231" height="2.06452" fill="#6F6B6B"/>
<rect width="4.05633" height="2.02817" transform="matrix(0.694203 0.71978 -0.694203 0.71978 23.3107 6.19357)" fill="#6F6B6B"/>
<rect width="4.05633" height="2.02817" transform="matrix(-0.694203 0.71978 -0.694203 -0.71978 10.1974 7.65335)" fill="#6F6B6B"/>
</g>
<defs>
<clipPath id="clip0_328_1214">
<rect width="32" height="32" fill="white"/>
</clipPath>
</defs>
</svg>
