<svg id="visual" viewBox="0 0 900 600" width="900" height="600"
    xmlns="http://www.w3.org/2000/svg"
    xmlns:xlink="http://www.w3.org/1999/xlink" version="1.1">
    <rect x="0" y="0" width="900" height="600" fill="#abcbfa"></rect>
    <path d="M0 89L30 100.2C60 111.3 120 133.7 180 153.3C240 173 300 190 360 177.8C420 165.7 480 124.3 540 102.7C600 81 660 79 720 96.5C780 114 840 151 870 169.5L900 188L900 0L870 0C840 0 780 0 720 0C660 0 600 0 540 0C480 0 420 0 360 0C300 0 240 0 180 0C120 0 60 0 30 0L0 0Z" fill="#002d72" stroke-linecap="round" stroke-linejoin="miter"></path>
</svg> 