<svg id="visual" viewBox="0 0 675 900" width="675" height="900" xmlns="http://www.w3.org/2000/svg" xmlns:xlink="http://www.w3.org/1999/xlink" version="1.1"><path d="M0 145L56.3 154C112.7 163 225.3 181 337.8 181C450.3 181 562.7 163 618.8 154L675 145L675 0L618.8 0C562.7 0 450.3 0 337.8 0C225.3 0 112.7 0 56.3 0L0 0Z" fill="#f3faff"></path><path d="M0 145L56.3 170.5C112.7 196 225.3 247 337.8 277C450.3 307 562.7 316 618.8 320.5L675 325L675 143L618.8 152C562.7 161 450.3 179 337.8 179C225.3 179 112.7 161 56.3 152L0 143Z" fill="#99b4d1"></path><path d="M0 172L56.3 239.5C112.7 307 225.3 442 337.8 550C450.3 658 562.7 739 618.8 779.5L675 820L675 323L618.8 318.5C562.7 314 450.3 305 337.8 275C225.3 245 112.7 194 56.3 168.5L0 143Z" fill="#4d6fa3"></path><path d="M0 901L56.3 901C112.7 901 225.3 901 337.8 901C450.3 901 562.7 901 618.8 901L675 901L675 818L618.8 777.5C562.7 737 450.3 656 337.8 548C225.3 440 112.7 305 56.3 237.5L0 170Z" fill="#002d72"></path></svg>