<svg id="visual" viewBox="0 0 675 900" width="675" height="900" xmlns="http://www.w3.org/2000/svg" xmlns:xlink="http://www.w3.org/1999/xlink" version="1.1"><path d="M0 208L28.2 200.5C56.3 193 112.7 178 169 173.5C225.3 169 281.7 175 337.8 190C394 205 450 229 506.2 235C562.3 241 618.7 229 646.8 223L675 217L675 0L646.8 0C618.7 0 562.3 0 506.2 0C450 0 394 0 337.8 0C281.7 0 225.3 0 169 0C112.7 0 56.3 0 28.2 0L0 0Z" fill="#ffffff"></path><path d="M0 325L28.2 316C56.3 307 112.7 289 169 284.5C225.3 280 281.7 289 337.8 301C394 313 450 328 506.2 335.5C562.3 343 618.7 343 646.8 343L675 343L675 215L646.8 221C618.7 227 562.3 239 506.2 233C450 227 394 203 337.8 188C281.7 173 225.3 167 169 171.5C112.7 176 56.3 191 28.2 198.5L0 206Z" fill="#d8d8e7"></path><path d="M0 532L28.2 533.5C56.3 535 112.7 538 169 529C225.3 520 281.7 499 337.8 488.5C394 478 450 478 506.2 485.5C562.3 493 618.7 508 646.8 515.5L675 523L675 341L646.8 341C618.7 341 562.3 341 506.2 333.5C450 326 394 311 337.8 299C281.7 287 225.3 278 169 282.5C112.7 287 56.3 305 28.2 314L0 323Z" fill="#b2b2cf"></path><path d="M0 649L28.2 653.5C56.3 658 112.7 667 169 659.5C225.3 652 281.7 628 337.8 611.5C394 595 450 586 506.2 589C562.3 592 618.7 607 646.8 614.5L675 622L675 521L646.8 513.5C618.7 506 562.3 491 506.2 483.5C450 476 394 476 337.8 486.5C281.7 497 225.3 518 169 527C112.7 536 56.3 533 28.2 531.5L0 530Z" fill="#8c8eb7"></path><path d="M0 694L28.2 701.5C56.3 709 112.7 724 169 721C225.3 718 281.7 697 337.8 685C394 673 450 670 506.2 670C562.3 670 618.7 673 646.8 674.5L675 676L675 620L646.8 612.5C618.7 605 562.3 590 506.2 587C450 584 394 593 337.8 609.5C281.7 626 225.3 650 169 657.5C112.7 665 56.3 656 28.2 651.5L0 647Z" fill="#666ba0"></path><path d="M0 811L28.2 806.5C56.3 802 112.7 793 169 781C225.3 769 281.7 754 337.8 752.5C394 751 450 763 506.2 770.5C562.3 778 618.7 781 646.8 782.5L675 784L675 674L646.8 672.5C618.7 671 562.3 668 506.2 668C450 668 394 671 337.8 683C281.7 695 225.3 716 169 719C112.7 722 56.3 707 28.2 699.5L0 692Z" fill="#3e4b89"></path><path d="M0 901L28.2 901C56.3 901 112.7 901 169 901C225.3 901 281.7 901 337.8 901C394 901 450 901 506.2 901C562.3 901 618.7 901 646.8 901L675 901L675 782L646.8 780.5C618.7 779 562.3 776 506.2 768.5C450 761 394 749 337.8 750.5C281.7 752 225.3 767 169 779C112.7 791 56.3 800 28.2 804.5L0 809Z" fill="#002d72"></path></svg>