<svg id="visual" viewBox="0 0 540 960" width="540" height="960" xmlns="http://www.w3.org/2000/svg" xmlns:xlink="http://www.w3.org/1999/xlink" version="1.1"><path d="M0 683L45 665.3C90 647.7 180 612.3 270 565.8C360 519.3 450 461.7 495 432.8L540 404L540 0L495 0C450 0 360 0 270 0C180 0 90 0 45 0L0 0Z" fill="#f3faff"></path><path d="M0 836L45 802.5C90 769 180 702 270 700.5C360 699 450 763 495 795L540 827L540 402L495 430.8C450 459.7 360 517.3 270 563.8C180 610.3 90 645.7 45 663.3L0 681Z" fill="#99b4d1"></path><path d="M0 913L45 877.8C90 842.7 180 772.3 270 761.2C360 750 450 798 495 822L540 846L540 825L495 793C450 761 360 697 270 698.5C180 700 90 767 45 800.5L0 834Z" fill="#4d6fa3"></path><path d="M0 961L45 961C90 961 180 961 270 961C360 961 450 961 495 961L540 961L540 844L495 820C450 796 360 748 270 759.2C180 770.3 90 840.7 45 875.8L0 911Z" fill="#002d72"></path></svg>