<svg id="visual" viewBox="0 0 960 540" width="960" height="540" xmlns="http://www.w3.org/2000/svg" xmlns:xlink="http://www.w3.org/1999/xlink" version="1.1"><path d="M0 125L40 120.5C80 116 160 107 240 104.3C320 101.7 400 105.3 480 114.3C560 123.3 640 137.7 720 141.3C800 145 880 138 920 134.5L960 131L960 0L920 0C880 0 800 0 720 0C640 0 560 0 480 0C400 0 320 0 240 0C160 0 80 0 40 0L0 0Z" fill="#ffffff"></path><path d="M0 195L40 189.7C80 184.3 160 173.7 240 171C320 168.3 400 173.7 480 180.8C560 188 640 197 720 201.5C800 206 880 206 920 206L960 206L960 129L920 132.5C880 136 800 143 720 139.3C640 135.7 560 121.3 480 112.3C400 103.3 320 99.7 240 102.3C160 105 80 114 40 118.5L0 123Z" fill="#d8d8e7"></path><path d="M0 320L40 320.8C80 321.7 160 323.3 240 317.8C320 312.3 400 299.7 480 293.3C560 287 640 287 720 291.5C800 296 880 305 920 309.5L960 314L960 204L920 204C880 204 800 204 720 199.5C640 195 560 186 480 178.8C400 171.7 320 166.3 240 169C160 171.7 80 182.3 40 187.7L0 193Z" fill="#b2b2cf"></path><path d="M0 390L40 392.7C80 395.3 160 400.7 240 396.2C320 391.7 400 377.3 480 367.5C560 357.7 640 352.3 720 354.2C800 356 880 365 920 369.5L960 374L960 312L920 307.5C880 303 800 294 720 289.5C640 285 560 285 480 291.3C400 297.7 320 310.3 240 315.8C160 321.3 80 319.7 40 318.8L0 318Z" fill="#8c8eb7"></path><path d="M0 417L40 421.5C80 426 160 435 240 433.2C320 431.3 400 418.7 480 411.5C560 404.3 640 402.7 720 402.7C800 402.7 880 404.3 920 405.2L960 406L960 372L920 367.5C880 363 800 354 720 352.2C640 350.3 560 355.7 480 365.5C400 375.3 320 389.7 240 394.2C160 398.7 80 393.3 40 390.7L0 388Z" fill="#666ba0"></path><path d="M0 487L40 484.3C80 481.7 160 476.3 240 469.2C320 462 400 453 480 452C560 451 640 458 720 462.5C800 467 880 469 920 470L960 471L960 404L920 403.2C880 402.3 800 400.7 720 400.7C640 400.7 560 402.3 480 409.5C400 416.7 320 429.3 240 431.2C160 433 80 424 40 419.5L0 415Z" fill="#3e4b89"></path><path d="M0 541L40 541C80 541 160 541 240 541C320 541 400 541 480 541C560 541 640 541 720 541C800 541 880 541 920 541L960 541L960 469L920 468C880 467 800 465 720 460.5C640 456 560 449 480 450C400 451 320 460 240 467.2C160 474.3 80 479.7 40 482.3L0 485Z" fill="#002d72"></path></svg>