<svg id="visual" viewBox="0 0 960 540" width="960" height="540" xmlns="http://www.w3.org/2000/svg" xmlns:xlink="http://www.w3.org/1999/xlink" version="1.1"><path d="M0 282L53.3 266.7C106.7 251.3 213.3 220.7 320 207.2C426.7 193.7 533.3 197.3 640 193.7C746.7 190 853.3 179 906.7 173.5L960 168L960 0L906.7 0C853.3 0 746.7 0 640 0C533.3 0 426.7 0 320 0C213.3 0 106.7 0 53.3 0L0 0Z" fill="#f3f9ff"></path><path d="M0 282L53.3 267.5C106.7 253 213.3 224 320 218.5C426.7 213 533.3 231 640 254.5C746.7 278 853.3 307 906.7 321.5L960 336L960 166L906.7 171.5C853.3 177 746.7 188 640 191.7C533.3 195.3 426.7 191.7 320 205.2C213.3 218.7 106.7 249.3 53.3 264.7L0 280Z" fill="#9cb2d1"></path><path d="M0 503L53.3 459.8C106.7 416.7 213.3 330.3 320 298.8C426.7 267.3 533.3 290.7 640 309.5C746.7 328.3 853.3 342.7 906.7 349.8L960 357L960 334L906.7 319.5C853.3 305 746.7 276 640 252.5C533.3 229 426.7 211 320 216.5C213.3 222 106.7 251 53.3 265.5L0 280Z" fill="#516da3"></path><path d="M0 541L53.3 541C106.7 541 213.3 541 320 541C426.7 541 533.3 541 640 541C746.7 541 853.3 541 906.7 541L960 541L960 355L906.7 347.8C853.3 340.7 746.7 326.3 640 307.5C533.3 288.7 426.7 265.3 320 296.8C213.3 328.3 106.7 414.7 53.3 457.8L0 501Z" fill="#002d72"></path></svg>