<svg id="visual" viewBox="0 0 960 540" width="960" height="540" xmlns="http://www.w3.org/2000/svg" xmlns:xlink="http://www.w3.org/1999/xlink" version="1.1"><path d="M0 82L32 96.3C64 110.7 128 139.3 192 156.5C256 173.7 320 179.3 384 170.3C448 161.3 512 137.7 576 145.7C640 153.7 704 193.3 768 205.2C832 217 896 201 928 193L960 185L960 0L928 0C896 0 832 0 768 0C704 0 640 0 576 0C512 0 448 0 384 0C320 0 256 0 192 0C128 0 64 0 32 0L0 0Z" fill="#f3f9ff"></path><path d="M0 163L32 180.2C64 197.3 128 231.7 192 247.8C256 264 320 262 384 253C448 244 512 228 576 247.8C640 267.7 704 323.3 768 335C832 346.7 896 314.3 928 298.2L960 282L960 183L928 191C896 199 832 215 768 203.2C704 191.3 640 151.7 576 143.7C512 135.7 448 159.3 384 168.3C320 177.3 256 171.7 192 154.5C128 137.3 64 108.7 32 94.3L0 80Z" fill="#b0c4dc"></path><path d="M0 228L32 250.5C64 273 128 318 192 336.8C256 355.7 320 348.3 384 339.3C448 330.3 512 319.7 576 334.2C640 348.7 704 388.3 768 401.8C832 415.3 896 402.7 928 396.3L960 390L960 280L928 296.2C896 312.3 832 344.7 768 333C704 321.3 640 265.7 576 245.8C512 226 448 242 384 251C320 260 256 262 192 245.8C128 229.7 64 195.3 32 178.2L0 161Z" fill="#758fba"></path><path d="M0 449L32 457.2C64 465.3 128 481.7 192 481.7C256 481.7 320 465.3 384 457.2C448 449 512 449 576 458C640 467 704 485 768 492.2C832 499.3 896 495.7 928 493.8L960 492L960 388L928 394.3C896 400.7 832 413.3 768 399.8C704 386.3 640 346.7 576 332.2C512 317.7 448 328.3 384 337.3C320 346.3 256 353.7 192 334.8C128 316 64 271 32 248.5L0 226Z" fill="#405d97"></path><path d="M0 541L32 541C64 541 128 541 192 541C256 541 320 541 384 541C448 541 512 541 576 541C640 541 704 541 768 541C832 541 896 541 928 541L960 541L960 490L928 491.8C896 493.7 832 497.3 768 490.2C704 483 640 465 576 456C512 447 448 447 384 455.2C320 463.3 256 479.7 192 479.7C128 479.7 64 463.3 32 455.2L0 447Z" fill="#002d72"></path></svg>