<svg id="visual" viewBox="0 0 960 540" width="960" height="540" xmlns="http://www.w3.org/2000/svg" xmlns:xlink="http://www.w3.org/1999/xlink" version="1.1"><path d="M0 82L53.3 132.3C106.7 182.7 213.3 283.3 320 325.7C426.7 368 533.3 352 640 328.7C746.7 305.3 853.3 274.7 906.7 259.3L960 244L960 0L906.7 0C853.3 0 746.7 0 640 0C533.3 0 426.7 0 320 0C213.3 0 106.7 0 53.3 0L0 0Z" fill="#f3f9ff"></path><path d="M0 104L53.3 165.2C106.7 226.3 213.3 348.7 320 398.2C426.7 447.7 533.3 424.3 640 393.7C746.7 363 853.3 325 906.7 306L960 287L960 242L906.7 257.3C853.3 272.7 746.7 303.3 640 326.7C533.3 350 426.7 366 320 323.7C213.3 281.3 106.7 180.7 53.3 130.3L0 80Z" fill="#9cb2d1"></path><path d="M0 492L53.3 492C106.7 492 213.3 492 320 486.7C426.7 481.3 533.3 470.7 640 453.7C746.7 436.7 853.3 413.3 906.7 401.7L960 390L960 285L906.7 304C853.3 323 746.7 361 640 391.7C533.3 422.3 426.7 445.7 320 396.2C213.3 346.7 106.7 224.3 53.3 163.2L0 102Z" fill="#516da3"></path><path d="M0 541L53.3 541C106.7 541 213.3 541 320 541C426.7 541 533.3 541 640 541C746.7 541 853.3 541 906.7 541L960 541L960 388L906.7 399.7C853.3 411.3 746.7 434.7 640 451.7C533.3 468.7 426.7 479.3 320 484.7C213.3 490 106.7 490 53.3 490L0 490Z" fill="#002d72"></path></svg>