<svg id="visual" viewBox="0 0 960 540" width="960" height="540" xmlns="http://www.w3.org/2000/svg" xmlns:xlink="http://www.w3.org/1999/xlink" version="1.1"><path d="M0 487L53.3 452.8C106.7 418.7 213.3 350.3 320 327.8C426.7 305.3 533.3 328.7 640 285.5C746.7 242.3 853.3 132.7 906.7 77.8L960 23L960 0L906.7 0C853.3 0 746.7 0 640 0C533.3 0 426.7 0 320 0C213.3 0 106.7 0 53.3 0L0 0Z" fill="#f3f9ff"></path><path d="M0 519L53.3 515.5C106.7 512 213.3 505 320 495.2C426.7 485.3 533.3 472.7 640 436.7C746.7 400.7 853.3 341.3 906.7 311.7L960 282L960 21L906.7 75.8C853.3 130.7 746.7 240.3 640 283.5C533.3 326.7 426.7 303.3 320 325.8C213.3 348.3 106.7 416.7 53.3 450.8L0 485Z" fill="#758fba"></path><path d="M0 541L53.3 541C106.7 541 213.3 541 320 541C426.7 541 533.3 541 640 541C746.7 541 853.3 541 906.7 541L960 541L960 280L906.7 309.7C853.3 339.3 746.7 398.7 640 434.7C533.3 470.7 426.7 483.3 320 493.2C213.3 503 106.7 510 53.3 513.5L0 517Z" fill="#002d72"></path></svg>