<svg id="visual" viewBox="0 0 960 540" width="960" height="540" xmlns="http://www.w3.org/2000/svg" xmlns:xlink="http://www.w3.org/1999/xlink" version="1.1"><path d="M0 136L32 145.8C64 155.7 128 175.3 192 183.5C256 191.7 320 188.3 384 183.8C448 179.3 512 173.7 576 169.2C640 164.7 704 161.3 768 162.3C832 163.3 896 168.7 928 171.3L960 174L960 0L928 0C896 0 832 0 768 0C704 0 640 0 576 0C512 0 448 0 384 0C320 0 256 0 192 0C128 0 64 0 32 0L0 0Z" fill="#f3f9ff"></path><path d="M0 244L32 253.8C64 263.7 128 283.3 192 294.2C256 305 320 307 384 299.8C448 292.7 512 276.3 576 270.8C640 265.3 704 270.7 768 271.7C832 272.7 896 269.3 928 267.7L960 266L960 172L928 169.3C896 166.7 832 161.3 768 160.3C704 159.3 640 162.7 576 167.2C512 171.7 448 177.3 384 181.8C320 186.3 256 189.7 192 181.5C128 173.3 64 153.7 32 143.8L0 134Z" fill="#9cb2d1"></path><path d="M0 336L32 346.8C64 357.7 128 379.3 192 388.3C256 397.3 320 393.7 384 384.7C448 375.7 512 361.3 576 359.5C640 357.7 704 368.3 768 371C832 373.7 896 368.3 928 365.7L960 363L960 264L928 265.7C896 267.3 832 270.7 768 269.7C704 268.7 640 263.3 576 268.8C512 274.3 448 290.7 384 297.8C320 305 256 303 192 292.2C128 281.3 64 261.7 32 251.8L0 242Z" fill="#516da3"></path><path d="M0 541L32 541C64 541 128 541 192 541C256 541 320 541 384 541C448 541 512 541 576 541C640 541 704 541 768 541C832 541 896 541 928 541L960 541L960 361L928 363.7C896 366.3 832 371.7 768 369C704 366.3 640 355.7 576 357.5C512 359.3 448 373.7 384 382.7C320 391.7 256 395.3 192 386.3C128 377.3 64 355.7 32 344.8L0 334Z" fill="#002d72"></path></svg>