<svg id="visual" viewBox="0 0 960 540" width="960" height="540" xmlns="http://www.w3.org/2000/svg" xmlns:xlink="http://www.w3.org/1999/xlink" version="1.1"><path d="M0 293L53.3 277.7C106.7 262.3 213.3 231.7 320 212.7C426.7 193.7 533.3 186.3 640 162C746.7 137.7 853.3 96.3 906.7 75.7L960 55L960 0L906.7 0C853.3 0 746.7 0 640 0C533.3 0 426.7 0 320 0C213.3 0 106.7 0 53.3 0L0 0Z" fill="#f3f9ff"></path><path d="M0 374L53.3 359.5C106.7 345 213.3 316 320 317.7C426.7 319.3 533.3 351.7 640 362.5C746.7 373.3 853.3 362.7 906.7 357.3L960 352L960 53L906.7 73.7C853.3 94.3 746.7 135.7 640 160C533.3 184.3 426.7 191.7 320 210.7C213.3 229.7 106.7 260.3 53.3 275.7L0 291Z" fill="#9cb2d1"></path><path d="M0 514L53.3 508.7C106.7 503.3 213.3 492.7 320 482.8C426.7 473 533.3 464 640 451.3C746.7 438.7 853.3 422.3 906.7 414.2L960 406L960 350L906.7 355.3C853.3 360.7 746.7 371.3 640 360.5C533.3 349.7 426.7 317.3 320 315.7C213.3 314 106.7 343 53.3 357.5L0 372Z" fill="#516da3"></path><path d="M0 541L53.3 541C106.7 541 213.3 541 320 541C426.7 541 533.3 541 640 541C746.7 541 853.3 541 906.7 541L960 541L960 404L906.7 412.2C853.3 420.3 746.7 436.7 640 449.3C533.3 462 426.7 471 320 480.8C213.3 490.7 106.7 501.3 53.3 506.7L0 512Z" fill="#002d72"></path></svg>