<svg id="visual" viewBox="0 0 960 540" width="960" height="540" xmlns="http://www.w3.org/2000/svg" xmlns:xlink="http://www.w3.org/1999/xlink" version="1.1"><path d="M0 114L32 116.8C64 119.7 128 125.3 192 129.8C256 134.3 320 137.7 384 132.2C448 126.7 512 112.3 576 109.7C640 107 704 116 768 120.5C832 125 896 125 928 125L960 125L960 0L928 0C896 0 832 0 768 0C704 0 640 0 576 0C512 0 448 0 384 0C320 0 256 0 192 0C128 0 64 0 32 0L0 0Z" fill="#f3f9ff"></path><path d="M0 168L32 170.8C64 173.7 128 179.3 192 181.2C256 183 320 181 384 175.5C448 170 512 161 576 161C640 161 704 170 768 172.7C832 175.3 896 171.7 928 169.8L960 168L960 123L928 123C896 123 832 123 768 118.5C704 114 640 105 576 107.7C512 110.3 448 124.7 384 130.2C320 135.7 256 132.3 192 127.8C128 123.3 64 117.7 32 114.8L0 112Z" fill="#c6d5e8"></path><path d="M0 206L32 208.7C64 211.3 128 216.7 192 219.3C256 222 320 222 384 215.8C448 209.7 512 197.3 576 196.5C640 195.7 704 206.3 768 211.7C832 217 896 217 928 217L960 217L960 166L928 167.8C896 169.7 832 173.3 768 170.7C704 168 640 159 576 159C512 159 448 168 384 173.5C320 179 256 181 192 179.2C128 177.3 64 171.7 32 168.8L0 166Z" fill="#9cb2d1"></path><path d="M0 276L32 275.2C64 274.3 128 272.7 192 276.3C256 280 320 289 384 283.7C448 278.3 512 258.7 576 254.2C640 249.7 704 260.3 768 267.5C832 274.7 896 278.3 928 280.2L960 282L960 215L928 215C896 215 832 215 768 209.7C704 204.3 640 193.7 576 194.5C512 195.3 448 207.7 384 213.8C320 220 256 220 192 217.3C128 214.7 64 209.3 32 206.7L0 204Z" fill="#758fba"></path><path d="M0 406L32 408.7C64 411.3 128 416.7 192 420.3C256 424 320 426 384 421.5C448 417 512 406 576 403.2C640 400.3 704 405.7 768 412C832 418.3 896 425.7 928 429.3L960 433L960 280L928 278.2C896 276.3 832 272.7 768 265.5C704 258.3 640 247.7 576 252.2C512 256.7 448 276.3 384 281.7C320 287 256 278 192 274.3C128 270.7 64 272.3 32 273.2L0 274Z" fill="#516da3"></path><path d="M0 465L32 466C64 467 128 469 192 470.8C256 472.7 320 474.3 384 469.8C448 465.3 512 454.7 576 451.2C640 447.7 704 451.3 768 456.7C832 462 896 469 928 472.5L960 476L960 431L928 427.3C896 423.7 832 416.3 768 410C704 403.7 640 398.3 576 401.2C512 404 448 415 384 419.5C320 424 256 422 192 418.3C128 414.7 64 409.3 32 406.7L0 404Z" fill="#2f4c8b"></path><path d="M0 541L32 541C64 541 128 541 192 541C256 541 320 541 384 541C448 541 512 541 576 541C640 541 704 541 768 541C832 541 896 541 928 541L960 541L960 474L928 470.5C896 467 832 460 768 454.7C704 449.3 640 445.7 576 449.2C512 452.7 448 463.3 384 467.8C320 472.3 256 470.7 192 468.8C128 467 64 465 32 464L0 463Z" fill="#002d72"></path></svg>