<svg id="visual" viewBox="0 0 960 540" width="960" height="540" xmlns="http://www.w3.org/2000/svg" xmlns:xlink="http://www.w3.org/1999/xlink" version="1.1"><rect x="0" y="0" width="960" height="540" fill="#f3faff"></rect><path d="M0 350L32 356.8C64 363.7 128 377.3 192 378.8C256 380.3 320 369.7 384 353.7C448 337.7 512 316.3 576 313.8C640 311.3 704 327.7 768 353.8C832 380 896 416 928 434L960 452L960 541L928 541C896 541 832 541 768 541C704 541 640 541 576 541C512 541 448 541 384 541C320 541 256 541 192 541C128 541 64 541 32 541L0 541Z" fill="#002d72" stroke-linecap="round" stroke-linejoin="miter"></path></svg>