<svg id="visual" viewBox="0 0 900 675" width="900" height="675" xmlns="http://www.w3.org/2000/svg" xmlns:xlink="http://www.w3.org/1999/xlink" version="1.1"><rect x="0" y="0" width="900" height="675" fill="#f3faff"></rect><path d="M0 438L30 446.5C60 455 120 472 180 473.8C240 475.7 300 462.3 360 442.2C420 422 480 395 540 391.8C600 388.7 660 409.3 720 442.2C780 475 840 520 870 542.5L900 565L900 676L870 676C840 676 780 676 720 676C660 676 600 676 540 676C480 676 420 676 360 676C300 676 240 676 180 676C120 676 60 676 30 676L0 676Z" fill="#002d72" stroke-linecap="round" stroke-linejoin="miter"></path></svg>