<svg id="visual" viewBox="0 0 540 960" width="540" height="960" xmlns="http://www.w3.org/2000/svg" xmlns:xlink="http://www.w3.org/1999/xlink" version="1.1"><path d="M0 308L30 309.7C60 311.3 120 314.7 180 332.3C240 350 300 382 360 374C420 366 480 318 510 294L540 270L540 0L510 0C480 0 420 0 360 0C300 0 240 0 180 0C120 0 60 0 30 0L0 0Z" fill="#f5f9ff"></path><path d="M0 500L30 492C60 484 120 468 180 482.5C240 497 300 542 360 529.2C420 516.3 480 445.7 510 410.3L540 375L540 268L510 292C480 316 420 364 360 372C300 380 240 348 180 330.3C120 312.7 60 309.3 30 307.7L0 306Z" fill="#a1b1d0"></path><path d="M0 721L30 700.2C60 679.3 120 637.7 180 640.8C240 644 300 692 360 688.8C420 685.7 480 631.3 510 604.2L540 577L540 373L510 408.3C480 443.7 420 514.3 360 527.2C300 540 240 495 180 480.5C120 466 60 482 30 490L0 498Z" fill="#576ca2"></path><path d="M0 961L30 961C60 961 120 961 180 961C240 961 300 961 360 961C420 961 480 961 510 961L540 961L540 575L510 602.2C480 629.3 420 683.7 360 686.8C300 690 240 642 180 638.8C120 635.7 60 677.3 30 698.2L0 719Z" fill="#002d72"></path></svg>