<?xml version="1.0" encoding="UTF-8"?>
<svg id="Layer_2" data-name="Layer 2" xmlns="http://www.w3.org/2000/svg" viewBox="0 0 116.04 116.04">
  <defs>
    <style>
      .cls-1 {
        fill: #002d72;
        fill-rule: evenodd;
      }
    </style>
  </defs>
  <g id="svg349">
    <g id="g347">
      <g id="g345">
        <g>
          <path class="cls-1" d="m58.02,0C26.05,0,.04,25.99,0,57.95c.04,32.04,26.06,58.09,58.04,58.09,24.98,0,46.33-15.9,54.49-38.14,2.27-6.2,3.51-12.9,3.51-19.88C116.01,26.06,89.98.03,58.02,0Zm49.6,54.17v.05c0,.63.04,1.27.08,1.89.04.64.08,1.3.08,1.96-.05,3.91-9.7,9.63-27.5,12.55l-.16.03v-.16c.34-4.23.5-8.43.5-12.46,0-4.68-.22-9.48-.65-14.26v-.16s.14.02.14.02c13.01,2.04,23.28,5.97,27.46,10.51l.03.04ZM71.59,10.15c17.37,4.96,30.73,18.97,34.87,36.55l.07.29-.25-.15c-6.05-3.65-15.55-6.57-26.77-8.22h-.09s-.01-.11-.01-.11c-1.5-11.67-4.26-21.41-7.96-28.18l-.14-.26.29.08Zm-17.46-1.73h.04c1.14-.08,2.48-.16,3.85-.16,5.71,0,14.34,19.85,14.34,49.76,0,4.61-.21,9.18-.63,13.58v.1s-.11,0-.11,0c-4.47.42-8.92.63-13.6.63h-.13c-5.05,0-10.15-.27-15.18-.8h-.1s0-.11,0-.11c-.39-4.26-.59-8.78-.59-13.41,0-2.58,0-5.24.19-7.77,0-1.17.11-2.36.21-3.52.03-.33.06-.66.09-.98,0-.65.08-1.3.15-1.94.04-.33.08-.65.11-.98v-.1s.11-.01.11-.01c4.84-.48,9.9-.73,15.03-.73v-4.86c-4.89,0-9.72.24-14.38.7l-.16.02.02-.16c1.97-13.84,5.98-24.77,10.71-29.23l.03-.03ZM9.57,46.74c2.12-9.04,6.72-17.3,13.29-23.87s14.82-11.17,23.86-13.3l.29-.07-.15.25c-4.8,7.94-7.25,19.9-8.46,28.55v.09s-.11.01-.11.01c-12.02,1.59-22.15,4.6-28.53,8.46l-.25.15.07-.29Zm-1.29,11.28c0-1.32,0-2.68.18-3.99v-.04s.03-.03.03-.03c4.34-4.68,15.25-8.64,29.17-10.61l.16-.02-.17,2.02c-.13,1.56-.23,3.12-.31,4.65-.13,2.75-.19,5.44-.19,8.02,0,4.3.18,8.59.52,12.74v.16s-.14-.02-.14-.02c-18.99-2.83-29.24-8.74-29.24-12.88Zm62.36,22.25c-2.94,17.89-8.7,27.55-12.62,27.55-1.27,0-2.59,0-3.87-.16h-.04s-.03-.03-.03-.03c-3.85-3.58-7.22-11.48-9.48-22.28l-4.77.98c1.23,7.03,3.62,13.76,7.08,20.01l.14.25-.27-.06c-17.63-4.14-31.65-17.53-36.61-34.94l-.08-.29.26.14c10.49,5.75,28.31,9.18,47.67,9.18,4.03,0,8.23-.16,12.48-.49h.16s-.03.15-.03.15Zm35.25-8.69c-2.33,8.14-6.72,15.6-12.71,21.59s-13.45,10.38-21.59,12.71l-.29.08.14-.26c3.51-6.41,6.18-15.55,7.73-26.42v-.09s.11-.01.11-.01c10.89-1.54,20.02-4.22,26.42-7.73l.26-.14-.08.29Z"/>
          <path class="cls-1" d="m52.28,50.8v4.71h-1.09c-.36,0-.65.29-.65.65v11.23c0,.36.29.65.65.65h13.98c.36,0,.65-.29.65-.65v-11.23c0-.36-.29-.65-.65-.65h-1.09v-4.71c0-3.25-2.65-5.9-5.9-5.9s-5.9,2.65-5.9,5.9Zm10.38,0v4.71h-8.95v-4.71c0-2.47,2.01-4.48,4.48-4.48s4.48,2.01,4.48,4.48Z"/>
        </g>
      </g>
    </g>
  </g>
</svg>