<?xml version="1.0" encoding="UTF-8"?>
<svg id="Layer_2" data-name="Layer 2" xmlns="http://www.w3.org/2000/svg" viewBox="0 0 99 99.05">
  <defs>
    <style>
      .cls-1 {
        fill: #002d72;
      }
    </style>
  </defs>
  <g id="svg349">
    <g id="g347">
      <g id="g345">
        <g>
          <path class="cls-1" d="m37.96,1.37C19.74,5.78,5.75,19.77,1.36,38c6.4-3.8,16.42-6.75,28.28-8.33,1.21-8.57,3.63-20.35,8.33-28.29Z"/>
          <path class="cls-1" d="m28.55,41.48c.08-1.54.19-3.1.31-4.66l.14-1.71c-13.77,1.96-24.54,5.88-28.84,10.48-.17,1.29-.17,2.57-.17,3.92,0,4.07,10.8,9.89,28.87,12.61-.34-4.11-.51-8.35-.51-12.61,0-2.58.06-5.28.19-8.03Z"/>
          <path class="cls-1" d="m71.87,61.83c16.92-2.8,27.08-8.43,27.13-12.27,0-.65-.04-1.31-.08-1.94-.04-.61-.08-1.24-.08-1.86-4.15-4.46-14.28-8.33-27.13-10.37.42,4.74.63,9.49.63,14.12,0,3.99-.16,8.14-.48,12.32Z"/>
          <path class="cls-1" d="m44.54,42.73v4.46h8.45v-4.46c0-2.33-1.9-4.23-4.23-4.23s-4.23,1.9-4.23,4.23Z"/>
          <path class="cls-1" d="m97.63,37.96C93.45,20.7,80.33,6.94,63.28,1.96c3.64,6.77,6.34,16.41,7.83,27.91,11.05,1.63,20.45,4.5,26.51,8.08Z"/>
          <path class="cls-1" d="m49.62,28.36v5.36h-.12c-5.13,0-10.18.24-15.03.72-.03.3-.06.59-.1.88-.08.63-.15,1.28-.15,1.92-.03.34-.06.66-.09.99-.1,1.15-.21,2.34-.21,3.51-.19,2.53-.19,5.19-.19,7.76,0,4.59.2,9.06.58,13.28,4.99.53,10.05.79,15.05.79h.13c4.64,0,9.05-.2,13.48-.62.41-4.37.62-8.9.62-13.46C63.58,19.75,55.1,0,49.49,0c-1.34,0-2.66.08-3.78.15-4.67,4.43-8.62,15.21-10.58,28.89,4.65-.45,9.49-.68,14.37-.68h.12Zm5.3,14.37v4.46h.84c.49,0,.9.4.9.9v11.23c0,.49-.4.9-.9.9h-13.98c-.49,0-.9-.4-.9-.9v-11.23c0-.49.4-.9.9-.9h.84v-4.46c0-3.39,2.76-6.15,6.15-6.15s6.15,2.76,6.15,6.15Z"/>
          <path class="cls-1" d="m63.28,97.04c16.38-4.79,28.97-17.38,33.76-33.76-6.39,3.45-15.42,6.08-26.15,7.6-1.54,10.71-4.16,19.74-7.6,26.15Z"/>
          <path class="cls-1" d="m23.46,9.35c-.32-.16-.64-.33-.97-.49.33.16.65.33.97.49Z"/>
          <path class="cls-1" d="m1.96,63.28c4.97,17.1,18.75,30.25,36.07,34.42-3.43-6.23-5.78-12.95-6.99-19.96l-.02-.12,5.25-1.08.03.12c2.25,10.78,5.59,18.67,9.41,22.24,1.25.15,2.55.15,3.8.15,3.86,0,9.52-10.16,12.34-27.18-4.2.32-8.35.48-12.34.48-19.24,0-36.97-3.39-47.53-9.07Z"/>
        </g>
      </g>
    </g>
  </g>
</svg>