<svg xmlns:mydata="http://www.w3.org/2000/svg" mydata:contrastcolor="ffffff" mydata:template="Default" mydata:presentation="2.5" mydata:layoutType="undefined" mydata:specialFontId="undefined" mydata:id1="000" mydata:id2="000" mydata:companyName="MYNE Global" mydata:companyTagline="" version="1.1"
    xmlns="http://www.w3.org/2000/svg"
    xmlns:xlink="http://www.w3.org/1999/xlink" width="550" height="940">
    <g fill="#002d72" fill-rule="none" stroke="none" stroke-width="1" stroke-linecap="butt" stroke-linejoin="miter" stroke-miterlimit="10" stroke-dasharray="" stroke-dashoffset="0" font-family="none" font-weight="none" font-size="none" text-anchor="none" style="mix-blend-mode: normal">
        <g >
            <g >
                <path d="M228.03518,278.85128v-2.13711l7.71597,-0.01243v6.75924c-1.18452,0.94431 -2.40632,1.65461 -3.6654,2.1309c-1.25907,0.47629 -2.55128,0.71444 -3.87662,0.71444c-1.78921,0 -3.41483,-0.38311 -4.87684,-1.14932c-1.46202,-0.76621 -2.56578,-1.87412 -3.31128,-3.32371c-0.7455,-1.44959 -1.11826,-3.06899 -1.11826,-4.85821c0,-1.77264 0.37068,-3.42725 1.11204,-4.96382c0.74136,-1.53657 1.80785,-2.6776 3.19946,-3.42311c1.39161,-0.7455 2.99444,-1.11826 4.8085,-1.11826c1.31706,0 2.50779,0.2133 3.57221,0.63989c1.06441,0.42659 1.89897,1.02093 2.50365,1.783c0.60469,0.76207 1.06441,1.75608 1.37918,2.98202l-2.17439,0.5964c-0.27335,-0.92774 -0.61297,-1.65668 -1.01886,-2.18681c-0.40589,-0.53014 -0.98572,-0.95466 -1.73951,-1.27357c-0.75379,-0.31891 -1.59041,-0.47837 -2.50987,-0.47837c-1.10169,0 -2.05428,0.16774 -2.85777,0.50322c-0.80349,0.33548 -1.45166,0.77657 -1.94452,1.32327c-0.49286,0.5467 -0.87597,1.14725 -1.14932,1.80164c-0.46387,1.12654 -0.6958,2.34834 -0.6958,3.6654c0,1.62354 0.27956,2.98202 0.83869,4.07543c0.55913,1.09341 1.37297,1.90518 2.44153,2.43532c1.06856,0.53014 2.20338,0.7952 3.40447,0.7952c1.04371,0 2.06256,-0.20087 3.05657,-0.60262c0.99401,-0.40174 1.74779,-0.83041 2.26136,-1.286v-3.39205z"></path>
                <path d="M273.10651,285.9957v-18.21516h2.41046v16.06562h8.97091v2.14954z" ></path>
                <path d="M319.23655,277.12419c0,-3.02344 0.81177,-5.39041 2.43532,-7.10093c1.62354,-1.71052 3.71924,-2.56578 6.28709,-2.56578c1.68153,0 3.19739,0.40174 4.54758,1.20523c1.35019,0.80349 2.3794,1.92382 3.08763,3.36098c0.70823,1.43717 1.06234,3.06692 1.06234,4.88927c0,1.84719 -0.37275,3.49973 -1.11826,4.95761c-0.7455,1.45788 -1.80164,2.56164 -3.16839,3.31128c-1.36676,0.74965 -2.8412,1.12447 -4.42333,1.12447c-1.71466,0 -3.24709,-0.41417 -4.59728,-1.24251c-1.35019,-0.82834 -2.37319,-1.95902 -3.06899,-3.39205c-0.6958,-1.43303 -1.04371,-2.94888 -1.04371,-4.54758zM321.72156,277.16147c0,2.1951 0.59019,3.92425 1.77057,5.18747c1.18038,1.26322 2.66104,1.89482 4.44197,1.89482c1.81406,0 3.30714,-0.63782 4.47924,-1.91346c1.1721,-1.27564 1.75815,-3.08556 1.75815,-5.42976c0,-1.48273 -0.25057,-2.777 -0.75172,-3.88284c-0.50114,-1.10583 -1.23422,-1.96316 -2.19924,-2.57199c-0.96501,-0.60883 -2.04807,-0.91324 -3.24916,-0.91324c-1.70638,0 -3.17461,0.58605 -4.40469,1.75815c-1.23008,1.1721 -1.84512,3.12905 -1.84512,5.87085z"></path>
                <path d="M374.84642,285.9957v-18.21516h6.83379c1.39161,0 2.50779,0.18431 3.34856,0.55292c0.84076,0.36861 1.49929,0.93602 1.97559,1.70224c0.47629,0.76621 0.71444,1.56763 0.71444,2.40425c0,0.77864 -0.21123,1.51172 -0.63368,2.19924c-0.42245,0.68752 -1.06027,1.24251 -1.91346,1.66496c1.10169,0.32305 1.94867,0.8739 2.54093,1.65254c0.59226,0.77864 0.88839,1.69809 0.88839,2.75837c0,0.85319 -0.18016,1.64632 -0.54049,2.3794c-0.36033,0.73308 -0.80556,1.29842 -1.3357,1.69602c-0.53014,0.3976 -1.19488,0.69788 -1.99422,0.90082c-0.79935,0.20294 -1.77886,0.30441 -2.93853,0.30441zM377.25689,275.43438h3.93875c1.06856,0 1.83477,-0.07041 2.29864,-0.21123c0.61297,-0.18223 1.07477,-0.48458 1.3854,-0.90703c0.31063,-0.42245 0.46594,-0.95259 0.46594,-1.59041c0,-0.60469 -0.14496,-1.13689 -0.43488,-1.59662c-0.28992,-0.45973 -0.70409,-0.7745 -1.24251,-0.94431c-0.53842,-0.16981 -1.46202,-0.25471 -2.77079,-0.25471h-3.64055zM377.25689,283.84616h4.53515c0.77864,0 1.32534,-0.02899 1.64011,-0.08698c0.55499,-0.0994 1.01886,-0.26507 1.39161,-0.497c0.37275,-0.23193 0.67924,-0.56948 0.91946,-1.01264c0.24022,-0.44316 0.36033,-0.95466 0.36033,-1.5345c0,-0.67924 -0.17395,-1.26943 -0.52185,-1.77057c-0.3479,-0.50114 -0.83041,-0.85319 -1.44752,-1.05613c-0.61711,-0.20294 -1.50551,-0.30441 -2.66518,-0.30441h-4.2121z"></path>
                <path d="M422.75489,285.9957l6.99532,-18.21516h2.59684l7.45505,18.21516h-2.74594l-2.12469,-5.51673h-7.61657l-2.00044,5.51673zM428.0107,278.5158h6.17526l-1.90104,-5.04458c-0.57984,-1.53243 -1.01057,-2.7915 -1.29221,-3.77722c-0.23193,1.16796 -0.55913,2.32763 -0.98158,3.47902z" ></path>
                <path d="M473.61863,285.9957v-18.21516h2.41046v16.06562h8.97091v2.14954z" ></path>
            </g>
            <g >
                <path d="M218.90275,252.67662v-68.98295h13.74012l16.32816,48.84332c1.50577,4.54867 2.60372,7.95233 3.29387,10.21098c0.78425,-2.50961 2.00769,-6.1956 3.67031,-11.05798l16.51638,-47.99632h12.28141v68.98295h-8.79933v-57.73675l-20.04552,57.73675h-8.23466l-19.95141,-58.72491v58.72491z"></path>
                <path d="M433.52159,252.67662v-68.98295h49.87853v8.14055h-40.74982v21.12779h38.16178v8.0935h-38.16178v23.48055h42.3497v8.14055z" ></path>
            </g>
            <g >
                <path d="M123.14717,176.85283c-32.11375,0 -58.14717,26.0333 -58.14717,58.14717c0,32.11387 26.03342,58.14717 58.14717,58.14717c32.11387,0 58.14717,-26.0333 58.14717,-58.14717c-0.02872,-32.10189 -26.04528,-58.11839 -58.14717,-58.14717zM107.84714,248.39839c-0.40133,-4.34394 -0.59322,-8.845 -0.59322,-13.39839c0,-2.59941 0,-5.23383 0.19189,-7.76346c0,-1.50031 0.17456,-3.01807 0.29667,-4.50106c0,-0.97687 0.17444,-1.93642 0.26166,-2.91341c4.72783,-0.47099 9.7871,-0.73277 15.14303,-0.73277v-5.1116c-4.83249,0 -9.73477,0.22677 -14.51505,0.69788c2.18075,-15.31759 6.52481,-25.24424 10.67698,-29.15214c1.27354,-0.08724 2.54708,-0.15702 3.83806,-0.15702c5.66993,0 14.21838,19.80105 14.21838,49.63357c0,4.79761 -0.22677,9.33355 -0.62799,13.57294c-4.23939,0.40122 -8.72301,0.62799 -13.59039,0.62799c-5.11055,0.00454 -10.21785,-0.26341 -15.30003,-0.80255zM111.87708,186.67487c-4.29161,7.10054 -6.97836,17.89951 -8.47867,28.59382c-11.44453,1.51776 -21.8074,4.37895 -28.57638,8.47867c4.32099,-18.38509 18.67194,-32.74279 37.05505,-37.07249zM171.47235,223.71247c-6.69925,-4.04739 -16.71324,-6.75158 -26.81445,-8.23445c-1.43054,-11.09553 -4.09972,-21.1444 -7.97267,-28.22743c17.34437,4.95519 30.65216,18.90388 34.78713,36.46188zM73.53104,235c0,-1.34332 0,-2.66919 0.17446,-3.97762c4.06489,-4.37895 14.53243,-8.51368 29.09981,-10.5722l-0.15711,1.86664c-0.12792,1.55846 -0.23259,3.11122 -0.31399,4.65805c-0.12211,2.6343 -0.19189,5.33849 -0.19189,8.02512c0,4.32661 0.17444,8.57752 0.52332,12.75295c-18.05644,-2.68663 -29.1346,-8.44378 -29.1346,-12.75295zM145.39067,247.47385c0.31399,-4.09984 0.48855,-8.30423 0.48855,-12.47385c0,-4.79761 -0.22689,-9.59521 -0.64555,-14.27071c14.32304,2.25053 23.63915,6.40258 27.39011,10.46754c0,1.27354 0.157,2.54708 0.157,3.85551c-0.05233,4.03006 -10.36287,9.6301 -27.39011,12.42151zM129.40904,232.81006h-0.96478v-4.58746c0,-3.3216 -2.7021,-6.0237 -6.0237,-6.0237c-3.3216,0 -6.0237,2.7021 -6.0237,6.0237v4.58746h-0.96443c-0.42634,0 -0.77185,0.34563 -0.77185,0.77185v11.23299c0,0.42634 0.34551,0.77185 0.77185,0.77185h13.9766c0.42634,0 0.77185,-0.34551 0.77185,-0.77185v-11.23299c-0.00023,-0.42622 -0.34586,-0.77185 -0.77185,-0.77185zM126.77206,232.81006h-8.70324v-4.58746c0,-2.39938 1.95235,-4.35173 4.35173,-4.35173c2.39938,0 4.3515,1.95235 4.3515,4.35173zM75.4152,248.52061c11.07808,6.07115 29.48352,9.194 47.73196,9.194c4.18706,0 8.37401,-0.17456 12.49129,-0.48855c-2.79141,16.9749 -8.39145,27.44244 -12.49129,27.44244c-1.29098,0 -2.58197,0 -3.85551,-0.157c-3.40196,-3.15774 -6.97836,-10.38032 -9.4731,-22.33084l-5.00705,1.02932c1.22609,7.07384 3.63222,13.89113 7.11791,20.16753c-17.59568,-4.13031 -31.57147,-17.47171 -36.51421,-34.8569zM136.68522,282.73196c3.66362,-6.69925 6.26303,-16.06769 7.7459,-26.46545c10.46754,-1.48287 19.7662,-4.06484 26.46545,-7.7459c-4.73318,16.54496 -17.66639,29.47817 -34.21135,34.21135z" ></path>
            </g>
        </g>
    </g>
</svg>