<svg id="visual" viewBox="0 0 600 900" width="600" height="900" xmlns="http://www.w3.org/2000/svg" xmlns:xlink="http://www.w3.org/1999/xlink" version="1.1"><path d="M0 127L50 215.5C100 304 200 481 300 565C400 649 500 640 550 635.5L600 631L600 0L550 0C500 0 400 0 300 0C200 0 100 0 50 0L0 0Z" fill="#f3f9ff"></path><path d="M0 154L50 254.5C100 355 200 556 300 653.5C400 751 500 745 550 742L600 739L600 629L550 633.5C500 638 400 647 300 563C200 479 100 302 50 213.5L0 125Z" fill="#9cb2d1"></path><path d="M0 388L50 467.5C100 547 200 706 300 767.5C400 829 500 793 550 775L600 757L600 737L550 740C500 743 400 749 300 651.5C200 554 100 353 50 252.5L0 152Z" fill="#516da3"></path><path d="M0 901L50 901C100 901 200 901 300 901C400 901 500 901 550 901L600 901L600 755L550 773C500 791 400 827 300 765.5C200 704 100 545 50 465.5L0 386Z" fill="#002d72"></path></svg>