<svg id="visual" viewBox="0 0 675 900" width="675" height="900" xmlns="http://www.w3.org/2000/svg" xmlns:xlink="http://www.w3.org/1999/xlink" version="1.1"><path d="M0 361L56.3 368.5C112.7 376 225.3 391 337.8 415C450.3 439 562.7 472 618.8 488.5L675 505L675 0L618.8 0C562.7 0 450.3 0 337.8 0C225.3 0 112.7 0 56.3 0L0 0Z" fill="#f3faff"></path><path d="M0 451L56.3 457C112.7 463 225.3 475 337.8 524.5C450.3 574 562.7 661 618.8 704.5L675 748L675 503L618.8 486.5C562.7 470 450.3 437 337.8 413C225.3 389 112.7 374 56.3 366.5L0 359Z" fill="#b2b2cf"></path><path d="M0 532L56.3 574C112.7 616 225.3 700 337.8 743.5C450.3 787 562.7 790 618.8 791.5L675 793L675 746L618.8 702.5C562.7 659 450.3 572 337.8 522.5C225.3 473 112.7 461 56.3 455L0 449Z" fill="#666ba0"></path><path d="M0 901L56.3 901C112.7 901 225.3 901 337.8 901C450.3 901 562.7 901 618.8 901L675 901L675 791L618.8 789.5C562.7 788 450.3 785 337.8 741.5C225.3 698 112.7 614 56.3 572L0 530Z" fill="#002d72"></path></svg>