<svg id="visual" viewBox="0 0 540 960" width="540" height="960" xmlns="http://www.w3.org/2000/svg" xmlns:xlink="http://www.w3.org/1999/xlink" version="1.1"><path d="M0 375L45 437.5C90 500 180 625 270 633C360 641 450 532 495 477.5L540 423L540 0L495 0C450 0 360 0 270 0C180 0 90 0 45 0L0 0Z" fill="#f5f9ff"></path><path d="M0 433L45 506.7C90 580.3 180 727.7 270 742C360 756.3 450 637.7 495 578.3L540 519L540 421L495 475.5C450 530 360 639 270 631C180 623 90 498 45 435.5L0 373Z" fill="#a1b1d0"></path><path d="M0 481L45 556.2C90 631.3 180 781.7 270 853.7C360 925.7 450 919.3 495 916.2L540 913L540 517L495 576.3C450 635.7 360 754.3 270 740C180 725.7 90 578.3 45 504.7L0 431Z" fill="#576ca2"></path><path d="M0 961L45 961C90 961 180 961 270 961C360 961 450 961 495 961L540 961L540 911L495 914.2C450 917.3 360 923.7 270 851.7C180 779.7 90 629.3 45 554.2L0 479Z" fill="#002d72"></path></svg>