<svg id="visual" viewBox="0 0 540 960" width="540" height="960" xmlns="http://www.w3.org/2000/svg" xmlns:xlink="http://www.w3.org/1999/xlink" version="1.1"><path d="M0 663L45 586.3C90 509.7 180 356.3 270 318C360 279.7 450 356.3 495 394.7L540 433L540 0L495 0C450 0 360 0 270 0C180 0 90 0 45 0L0 0Z" fill="#f5f9ff"></path><path d="M0 692L45 660C90 628 180 564 270 567.2C360 570.3 450 640.7 495 675.8L540 711L540 431L495 392.7C450 354.3 360 277.7 270 316C180 354.3 90 507.7 45 584.3L0 661Z" fill="#a1b1d0"></path><path d="M0 798L45 774C90 750 180 702 270 724.3C360 746.7 450 839.3 495 885.7L540 932L540 709L495 673.8C450 638.7 360 568.3 270 565.2C180 562 90 626 45 658L0 690Z" fill="#576ca2"></path><path d="M0 961L45 961C90 961 180 961 270 961C360 961 450 961 495 961L540 961L540 930L495 883.7C450 837.3 360 744.7 270 722.3C180 700 90 748 45 772L0 796Z" fill="#002d72"></path></svg>