<?xml version="1.0" standalone="no"?>
<!DOCTYPE svg PUBLIC "-//W3C//DTD SVG 20010904//EN"
 "http://www.w3.org/TR/2001/REC-SVG-20010904/DTD/svg10.dtd">
<svg version="1.0" xmlns="http://www.w3.org/2000/svg"
 width="512.000000pt" height="512.000000pt" viewBox="0 0 512.000000 512.000000"
 preserveAspectRatio="xMidYMid meet">
<metadata>
Created by potrace 1.14, written by Peter Selinger 2001-2017
</metadata>
<g transform="translate(0.000000,512.000000) scale(0.100000,-0.100000)"
fill="#000000" stroke="none">
<path d="M2310 5110 c-709 -73 -1354 -431 -1777 -985 -256 -337 -414 -691
-488 -1089 -132 -720 37 -1437 479 -2026 87 -117 300 -337 421 -435 509 -414
1180 -621 1825 -565 608 53 1173 314 1595 735 397 398 639 879 732 1460 25
153 24 551 -1 715 -105 692 -458 1285 -1011 1697 -320 240 -692 398 -1095 468
-129 22 -192 27 -375 30 -121 2 -258 0 -305 -5z m340 -395 c86 -59 194 -236
276 -452 104 -276 176 -597 225 -1009 36 -298 38 -1249 3 -1284 -44 -44 -1221
-37 -1265 7 -17 17 -32 461 -25 758 5 259 20 482 31 494 8 8 190 20 395 26
113 3 220 8 238 11 l32 5 0 110 0 109 -82 -5 c-46 -2 -155 -7 -243 -10 -88 -3
-195 -8 -238 -12 l-78 -6 7 44 c31 211 103 515 166 699 80 235 249 530 311
543 12 3 63 4 113 4 83 -2 94 -4 134 -32z m-635 -115 c-125 -250 -225 -584
-295 -989 -16 -96 -31 -176 -34 -178 -2 -2 -62 -13 -132 -24 -372 -58 -734
-161 -983 -280 -68 -32 -127 -59 -132 -59 -4 0 2 33 13 73 170 604 588 1106
1153 1383 112 55 405 164 443 164 7 0 -5 -35 -33 -90z m1272 25 c355 -128 688
-356 930 -639 210 -245 367 -540 453 -849 l19 -68 -22 7 c-12 4 -56 23 -97 44
-227 113 -523 204 -885 270 -93 17 -171 33 -173 34 -1 2 -16 83 -32 182 -68
405 -175 767 -296 1006 -30 59 -27 60 103 13z m-1631 -1497 c-12 -154 -18
-836 -8 -978 6 -79 9 -147 6 -149 -7 -7 -290 49 -457 91 -348 86 -616 207
-744 333 -75 75 -88 114 -79 230 l6 80 49 45 c132 121 425 247 776 335 126 32
387 83 429 84 l28 1 -6 -72z m2049 32 c366 -70 700 -188 884 -311 150 -101
150 -100 157 -201 9 -119 -6 -158 -94 -238 -117 -107 -417 -240 -713 -315
-122 -31 -391 -87 -396 -82 -1 2 2 100 8 218 11 205 7 596 -7 848 l-7 113 29
-5 c16 -4 79 -16 139 -27z m-3060 -1282 c318 -134 725 -227 1240 -284 173 -19
1017 -31 1148 -16 63 7 77 6 77 -6 0 -26 -41 -217 -80 -372 -103 -412 -264
-735 -402 -806 -19 -10 -68 -18 -127 -21 l-96 -6 -55 60 c-127 138 -239 390
-334 753 -20 74 -36 145 -36 158 0 27 5 27 -115 2 -53 -11 -99 -20 -101 -20
-11 0 -1 -59 31 -186 54 -221 125 -416 221 -606 25 -49 43 -92 41 -94 -5 -6
-153 38 -257 76 -118 42 -307 137 -420 211 -337 218 -638 562 -800 912 -38 84
-120 299 -120 317 0 5 26 -2 58 -16 31 -14 89 -39 127 -56z m3980 -39 c-99
-285 -266 -556 -485 -783 -186 -193 -368 -330 -593 -445 -109 -56 -361 -155
-378 -149 -5 2 16 55 45 118 102 219 177 469 241 805 20 105 38 200 41 212 5
26 0 24 189 58 321 59 642 153 863 254 59 27 108 46 110 42 1 -4 -14 -54 -33
-112z"/>
<path d="M2432 3105 c-59 -26 -110 -74 -138 -130 -23 -48 -27 -71 -32 -185 -5
-128 -5 -130 -28 -130 -13 0 -28 -9 -34 -20 -7 -12 -9 -111 -8 -277 l3 -258
324 -3 c198 -1 328 1 334 7 13 13 22 322 12 444 l-7 96 -34 7 -34 6 0 115 c0
159 -11 195 -79 263 -37 36 -70 60 -97 68 -55 16 -141 15 -182 -3z m171 -69
c50 -21 98 -78 108 -128 4 -24 8 -89 9 -145 l0 -103 -190 0 -190 0 0 125 c0
106 3 132 20 165 43 84 155 124 243 86z"/>
</g>
</svg>
